Music_Lava: ; ea2be
	musicheader 4, 1, Music_Lava_Ch1
	musicheader 1, 2, Music_Lava_Ch2
	musicheader 1, 3, Music_Lava_Ch3
	musicheader 1, 4, Music_Lava_Ch4

Music_Lava_Ch1:
	tempo $5A
	volume $77
	stereopanning $77
	dutycycle 1
	tone $0001
	vibrato $11, $15
	octave 2
	notetype $C, $67
	note F_, 4
	note F_, 1
	note __, 1
	note F_, 1
	note __, 1
	note F_, 4
	note D#, 1
	note __, 1
	note D#, 1
	note __, 3
	note F_, 1
	note __, 3
	note F_, 6
	note F_, 1
	note __, 1
	note F_, 1
	note __, 1
	note F_, 4
	note F_, 1
	note __, 1
	note F_, 1
	note __, 1
	note F_, 4
	note D#, 1
	note __, 1
	note D#, 1
	note __, 3
	note F_, 1
	note __, 3
	note F_, 6
	note F_, 1
	note __, 1
	note F_, 1
	note __, 1
	note F_, 4
	note F_, 1
	note __, 1
	note F_, 1
	note __, 1
	note F_, 4
	note D#, 1
	note __, 1
	note D#, 1
	note __, 3
	note F_, 1
	note __, 3
	note F_, 6
	note F_, 1
	note __, 1
	note F_, 1
	note __, 1
	note F_, 4
	note F_, 1
	note __, 1
	note F_, 1
	note __, 1
	note F_, 4
	note D#, 1
	note __, 1
	note D#, 1
	note __, 3
	note F_, 1
	note __, 3
	note F_, 6
	note F_, 1
	note __, 1
	note F_, 1
	note __, 1
Music_Lava_Ch1_loop:
	note F_, 4
	note F_, 1
	note __, 1
	note F_, 1
	note __, 1
	note F_, 4
	note D#, 1
	note __, 1
	note D#, 1
	note __, 3
	note F_, 1
	note __, 3
	note F_, 6
	note F_, 1
	note __, 1
	note F_, 1
	note __, 1
	note F_, 4
	note F_, 1
	note __, 1
	note F_, 1
	note __, 1
	note F_, 4
	note D#, 1
	note __, 1
	note D#, 1
	note __, 3
	note F_, 1
	note __, 3
	note F_, 6
	note F_, 1
	note __, 1
	note F_, 1
	note __, 1
	note F_, 4
	note F_, 1
	note __, 1
	note F_, 1
	note __, 1
	note F_, 4
	note D#, 1
	note __, 1
	note D#, 1
	note __, 3
	note F_, 1
	note __, 3
	note F_, 6
	note F_, 1
	note __, 1
	note F_, 1
	note __, 1
	note F_, 4
	note F_, 1
	note __, 1
	note F_, 1
	note __, 1
	note F_, 4
	note D#, 1
	note __, 1
	note D#, 1
	note __, 3
	note F_, 1
	note __, 3
	note F_, 6
	note F_, 1
	note __, 1
	note F_, 1
	note __, 1
	note F_, 4
	note F_, 1
	note __, 1
	note F_, 1
	note __, 1
	note F_, 4
	note D#, 1
	note __, 1
	note D#, 1
	note __, 3
	note F_, 1
	note __, 3
	note F_, 6
	note F_, 1
	note __, 1
	note F_, 1
	note __, 1
	note F_, 4
	note F_, 1
	note __, 1
	note F_, 1
	note __, 1
	note F_, 4
	note D#, 1
	note __, 1
	note D#, 1
	note __, 3
	note F_, 1
	note __, 3
	note F_, 6
	note F_, 1
	note __, 1
	note F_, 1
	note __, 1
	note F_, 4
	note F_, 1
	note __, 1
	note F_, 1
	note __, 1
	note F_, 4
	note D#, 1
	note __, 1
	note D#, 1
	note __, 3
	note F_, 1
	note __, 3
	note F_, 6
	note F_, 1
	note __, 1
	note F_, 1
	note __, 1
	note F_, 4
	note F_, 1
	note __, 1
	note F_, 1
	note __, 1
	note F_, 4
	note D#, 1
	note __, 1
	note D#, 1
	note __, 3
	note F_, 1
	note __, 3
	note F_, 6
	note F_, 1
	note __, 1
	note F_, 1
	note __, 1
	note F_, 4
	note F_, 1
	note __, 1
	note F_, 1
	note __, 1
	note F_, 4
	note D#, 1
	note __, 1
	note D#, 1
	note __, 3
	note F_, 1
	note __, 3
	note F_, 6
	note F_, 1
	note __, 1
	note F_, 1
	note __, 1
	note F_, 4
	note F_, 1
	note __, 1
	note F_, 1
	note __, 1
	note F_, 4
	note D#, 1
	note __, 1
	note D#, 1
	note __, 3
	note F_, 1
	note __, 3
	note F_, 6
	note F_, 1
	note __, 1
	note F_, 1
	note __, 1
	note F_, 4
	note F_, 1
	note __, 1
	note F_, 1
	note __, 1
	note F_, 4
	note D#, 1
	note __, 1
	note D#, 1
	note __, 3
	note F_, 1
	note __, 3
	note F_, 6
	note F_, 1
	note __, 1
	note F_, 1
	note __, 1
	note F_, 4
	note F_, 1
	note __, 1
	note F_, 1
	note __, 1
	note F_, 4
	note D#, 1
	note __, 1
	note D#, 1
	note __, 3
	note F_, 1
	note __, 3
	note F_, 6
	note F_, 1
	note __, 1
	note F_, 1
	note __, 16
	note __, 16
	note __, 16
	note __, 16
	notetype $1, $67
	note __, 12
	notetype $C, $67
	note F_, 4
	note F_, 1
	note __, 1
	note F_, 1
	note __, 1
	note F_, 4
	note D#, 1
	note __, 1
	note D#, 1
	note __, 3
	note F_, 1
	note __, 3
	note F_, 6
	note F_, 1
	note __, 1
	note F_, 1
	note __, 1
	note F_, 4
	note F_, 1
	note __, 1
	note F_, 1
	note __, 1
	note F_, 4
	note D#, 1
	note __, 1
	note D#, 1
	note __, 3
	note F_, 1
	note __, 3
	note F_, 6
	note F_, 1
	note __, 1
	note F_, 1
	note __, 16
	note __, 16
	note __, 16
	note __, 16
	notetype $1, $67
	note __, 12
	notetype $C, $67
	note F_, 4
	note F_, 1
	note __, 1
	note F_, 1
	note __, 1
	note F_, 4
	note D#, 1
	note __, 1
	note D#, 1
	note __, 3
	note F_, 1
	note __, 3
	note F_, 6
	note F_, 1
	note __, 1
	note F_, 1
	note __, 1
	note F_, 4
	note F_, 1
	note __, 1
	note F_, 1
	note __, 1
	note F_, 4
	note D#, 1
	note __, 1
	note D#, 1
	note __, 3
	note F_, 1
	note __, 3
	note F_, 6
	note F_, 1
	note __, 1
	note F_, 1
	note __, 16
	note __, 16
	note __, 16
	note __, 16
	notetype $1, $67
	note __, 12
	notetype $C, $67
	note F_, 4
	note F_, 1
	note __, 1
	note F_, 1
	note __, 1
	note F_, 4
	note D#, 1
	note __, 1
	note D#, 1
	note __, 3
	note F_, 1
	note __, 3
	note F_, 6
	note F_, 1
	note __, 1
	note F_, 1
	note __, 1
	note F_, 4
	note F_, 1
	note __, 1
	note F_, 1
	note __, 1
	note F_, 4
	note D#, 1
	note __, 1
	note D#, 1
	note __, 3
	note F_, 1
	note __, 3
	note F_, 6
	note F_, 1
	note __, 1
	note F_, 1
	note __, 16
	note __, 16
	note __, 16
	note __, 16
	notetype $1, $67
	note __, 12
	notetype $C, $67
	note F_, 4
	note F_, 1
	note __, 1
	note F_, 1
	note __, 1
	note F_, 4
	note D#, 1
	note __, 1
	note D#, 1
	note __, 3
	note F_, 1
	note __, 3
	note F_, 6
	note F_, 1
	note __, 1
	note F_, 1
	note __, 1
	note F_, 4
	note F_, 1
	note __, 1
	note F_, 1
	note __, 1
	note F_, 4
	note D#, 1
	note __, 1
	note D#, 1
	note __, 3
	note F_, 1
	note __, 3
	note F_, 6
	note F_, 1
	note __, 1
	note F_, 1
	note __, 16
	note __, 16
	note __, 16
	note __, 16
	notetype $1, $67
	note __, 12
	notetype $C, $67
	note F_, 4
	note F_, 1
	note __, 1
	note F_, 1
	note __, 1
	note F_, 4
	note D#, 1
	note __, 1
	note D#, 1
	note __, 3
	note F_, 1
	note __, 3
	note F_, 6
	note F_, 1
	note __, 1
	note F_, 1
	note __, 1
	note F_, 4
	note F_, 1
	note __, 1
	note F_, 1
	note __, 1
	note F_, 4
	note D#, 1
	note __, 1
	note D#, 1
	note __, 3
	note F_, 1
	note __, 3
	note F_, 6
	note F_, 1
	note __, 1
	note F_, 1
	note __, 16
	note __, 16
	note __, 16
	note __, 16
	notetype $1, $67
	note __, 12
	notetype $C, $67
	note F_, 4
	note F_, 1
	note __, 1
	note F_, 1
	note __, 1
	note F_, 4
	note D#, 1
	note __, 1
	note D#, 1
	note __, 3
	note F_, 1
	note __, 3
	note F_, 6
	note F_, 1
	note __, 1
	note F_, 1
	note __, 1
	note F_, 4
	note F_, 1
	note __, 1
	note F_, 1
	note __, 1
	note F_, 4
	note D#, 1
	note __, 1
	note D#, 1
	note __, 3
	note F_, 1
	note __, 3
	note F_, 6
	note F_, 1
	note __, 1
	note F_, 1
	note __, 1
	note F_, 4
	note F_, 1
	note __, 1
	note F_, 1
	note __, 1
	note F_, 4
	note D#, 1
	note __, 1
	note D#, 1
	note __, 3
	note F_, 1
	note __, 3
	note F_, 6
	note F_, 1
	note __, 1
	note F_, 1
	note __, 1
	note F_, 4
	note F_, 1
	note __, 1
	note F_, 1
	note __, 1
	note F_, 4
	note D#, 1
	note __, 1
	note D#, 1
	note __, 3
	note F_, 1
	note __, 3
	note F_, 6
	note F_, 1
	note __, 1
	note F_, 1
	octave 8
	notetype $4, $67
	note F_, 1
	notetype $1, $67
	note F_, 1
	note F_, 1
	note F_, 4
	note D#, 1
	note D#, 1
	note F_, 1
	note F_, 6
	note F_, 1
	note F_, 1
	loopchannel 0, Music_Lava_Ch1_loop

Music_Lava_Ch2:
	octave 1
	notetype $C, $A7
	note A#, 4
	note A#, 1
	note __, 1
	note A#, 1
	note __, 1
	note A#, 4
	note G#, 1
	note __, 1
	note G#, 1
	note __, 3
	note A#, 1
	note __, 3
	note A#, 6
	note A#, 1
	note __, 1
	note A#, 1
	note __, 1
	note A#, 4
	note A#, 1
	note __, 1
	note A#, 1
	note __, 1
	note A#, 4
	note G#, 1
	note __, 1
	note G#, 1
	note __, 3
	note A#, 1
	note __, 3
	note A#, 6
	note A#, 1
	note __, 1
	note A#, 1
	note __, 1
	note A#, 4
	note A#, 1
	note __, 1
	note A#, 1
	note __, 1
	note A#, 4
	note G#, 1
	note __, 1
	note G#, 1
	note __, 3
	note A#, 1
	note __, 3
	note A#, 6
	note A#, 1
	note __, 1
	note A#, 1
	note __, 1
	note A#, 4
	note A#, 1
	note __, 1
	note A#, 1
	note __, 1
	note A#, 4
	note G#, 1
	note __, 1
	note G#, 1
	note __, 3
	note A#, 1
	note __, 3
	note A#, 6
	note A#, 1
	note __, 1
	note A#, 1
	note __, 1
Music_Lava_Ch2_loop:
	note A#, 4
	note A#, 1
	note __, 1
	note A#, 1
	note __, 1
	note A#, 4
	note G#, 1
	note __, 1
	note G#, 1
	note __, 3
	note A#, 1
	note __, 3
	note A#, 6
	note A#, 1
	note __, 1
	note A#, 1
	note __, 1
	note A#, 4
	note A#, 1
	note __, 1
	note A#, 1
	note __, 1
	note A#, 4
	note G#, 1
	note __, 1
	note G#, 1
	note __, 3
	note A#, 1
	note __, 3
	note A#, 6
	note A#, 1
	note __, 1
	note A#, 1
	note __, 1
	note A#, 4
	note A#, 1
	note __, 1
	note A#, 1
	note __, 1
	note A#, 4
	note G#, 1
	note __, 1
	note G#, 1
	note __, 3
	note A#, 1
	note __, 3
	note A#, 6
	note A#, 1
	note __, 1
	note A#, 1
	note __, 1
	note A#, 4
	note A#, 1
	note __, 1
	note A#, 1
	note __, 1
	note A#, 4
	note G#, 1
	note __, 1
	note G#, 1
	note __, 1
	octave 7
	note D#, 1
	note __, 1
	octave 1
	note A#, 1
	note __, 3
	note A#, 6
	note A#, 1
	note __, 1
	note A#, 1
	note __, 9
	slidepitchto 101, 4, F_
	octave 3
	notetype $F, $A7
	note B_, 6
	notetype $C, $A7
	note F#, 4
	note A_, 4
	octave 1
	note A#, 1
	note __, 1
	note A#, 1
	note __, 1
	note A#, 4
	note G#, 1
	note __, 1
	note G#, 1
	note __, 3
	note A#, 1
	note __, 3
	note A#, 6
	note A#, 1
	note __, 1
	note A#, 1
	note __, 1
	note A#, 4
	note A#, 1
	note __, 1
	note A#, 1
	note __, 1
	note A#, 4
	note G#, 1
	note __, 1
	note G#, 1
	note __, 3
	note A#, 1
	note __, 3
	note A#, 6
	note A#, 1
	note __, 1
	note A#, 1
	note __, 16
	note __, 16
	note __, 16
	note __, 16
	notetype $1, $A7
	note __, 12
	notetype $C, $A7
	note A#, 4
	note A#, 1
	note __, 1
	note A#, 1
	note __, 1
	note A#, 4
	note G#, 1
	note __, 1
	note G#, 1
	note __, 3
	note A#, 1
	note __, 3
	note A#, 6
	note A#, 1
	note __, 1
	note A#, 1
	note __, 1
	note A#, 4
	note A#, 1
	note __, 1
	note A#, 1
	note __, 1
	note A#, 4
	note G#, 1
	note __, 1
	note G#, 1
	note __, 3
	note A#, 1
	note __, 3
	note A#, 6
	note A#, 1
	note __, 1
	note A#, 1
	note __, 16
	note __, 16
	note __, 16
	note __, 16
	notetype $1, $A7
	note __, 12
	notetype $C, $A7
	note A#, 4
	note A#, 1
	note __, 1
	note A#, 1
	note __, 1
	note A#, 4
	note G#, 1
	note __, 1
	note G#, 1
	note __, 3
	note A#, 1
	note __, 3
	note A#, 6
	note A#, 1
	note __, 1
	note A#, 1
	note __, 1
	note A#, 4
	note A#, 1
	note __, 1
	note A#, 1
	note __, 1
	note A#, 4
	note G#, 1
	note __, 1
	note G#, 1
	note __, 3
	note A#, 1
	note __, 3
	note A#, 6
	note A#, 1
	note __, 1
	note A#, 1
	note __, 16
	note __, 16
	note __, 16
	note __, 16
	notetype $1, $A7
	note __, 12
	notetype $C, $A7
	note A#, 4
	note A#, 1
	note __, 1
	note A#, 1
	note __, 1
	note A#, 4
	note G#, 1
	note __, 1
	note G#, 1
	note __, 3
	note A#, 1
	note __, 3
	note A#, 6
	note A#, 1
	note __, 1
	note A#, 1
	note __, 1
	note A#, 4
	note A#, 1
	note __, 1
	note A#, 1
	note __, 1
	note A#, 4
	note G#, 1
	note __, 1
	note G#, 1
	note __, 3
	note A#, 1
	note __, 3
	note A#, 6
	note A#, 1
	note __, 1
	note A#, 1
	note __, 16
	note __, 16
	note __, 16
	note __, 16
	notetype $1, $A7
	note __, 12
	notetype $C, $A7
	note A#, 4
	note A#, 1
	note __, 1
	note A#, 1
	note __, 1
	note A#, 4
	note G#, 1
	note __, 1
	note G#, 1
	note __, 3
	note A#, 1
	note __, 3
	note A#, 6
	note A#, 1
	note __, 1
	note A#, 1
	note __, 1
	note A#, 4
	note A#, 1
	note __, 1
	note A#, 1
	note __, 1
	note A#, 4
	note G#, 1
	note __, 1
	note G#, 1
	note __, 3
	note A#, 1
	note __, 3
	note A#, 6
	note A#, 1
	note __, 1
	note A#, 1
	note __, 16
	note __, 16
	note __, 16
	note __, 16
	notetype $1, $A7
	note __, 12
	notetype $C, $A7
	note A#, 4
	note A#, 1
	note __, 1
	note A#, 1
	note __, 1
	note A#, 4
	note G#, 1
	note __, 1
	note G#, 1
	note __, 3
	note A#, 1
	note __, 3
	note A#, 6
	note A#, 1
	note __, 1
	note A#, 1
	note __, 1
	note A#, 4
	note A#, 1
	note __, 1
	note A#, 1
	note __, 1
	note A#, 4
	note G#, 1
	note __, 1
	note G#, 1
	note __, 3
	note A#, 1
	note __, 3
	note A#, 6
	note A#, 1
	note __, 1
	note A#, 1
	note __, 16
	note __, 16
	note __, 16
	note __, 16
	notetype $1, $A7
	note __, 12
	notetype $C, $A7
	note A#, 4
	note A#, 1
	note __, 1
	note A#, 1
	note __, 1
	note A#, 4
	note G#, 1
	note __, 1
	note G#, 1
	note __, 3
	note A#, 1
	note __, 3
	note A#, 6
	note A#, 1
	note __, 1
	note A#, 1
	note __, 1
	note A#, 4
	note A#, 1
	note __, 1
	note A#, 1
	note __, 1
	note A#, 4
	note G#, 1
	note __, 1
	note G#, 1
	note __, 3
	note A#, 1
	note __, 3
	note A#, 6
	note A#, 1
	note __, 1
	note A#, 1
	note __, 16
	note __, 16
	note __, 16
	note __, 16
	notetype $1, $A7
	note __, 12
	notetype $C, $A7
	note A#, 4
	note A#, 1
	note __, 1
	note A#, 1
	note __, 1
	note A#, 4
	note G#, 1
	note __, 1
	note G#, 1
	note __, 3
	note A#, 1
	note __, 3
	note A#, 6
	note A#, 1
	note __, 1
	note A#, 1
	note __, 1
	note A#, 4
	note A#, 1
	note __, 1
	note A#, 1
	note __, 1
	note A#, 4
	note G#, 1
	note __, 1
	note G#, 1
	note __, 3
	note A#, 1
	note __, 3
	note A#, 6
	note A#, 1
	note __, 1
	note A#, 1
	note __, 1
	note A#, 4
	note A#, 1
	note __, 1
	note A#, 1
	note __, 1
	note A#, 4
	note G#, 1
	note __, 1
	note G#, 1
	note __, 3
	note A#, 1
	note __, 3
	note A#, 6
	note A#, 1
	note __, 1
	note A#, 1
	note __, 1
	note A#, 4
	note A#, 1
	note __, 1
	note A#, 1
	note __, 1
	note A#, 4
	note G#, 1
	note __, 1
	note G#, 1
	note __, 3
	note A#, 1
	note __, 3
	note A#, 6
	note A#, 1
	note __, 1
	note A#, 1
	note __, 1
	loopchannel 0, Music_Lava_Ch2_loop

Music_Lava_Ch3:
	notetype $1, $00
	note __, 16
	note __, 16
	note __, 16
	note __, 16
	dutycycle 5
	intensity $25
	octave 1
	note A#, 4
	note __, 4
	note A#, 4
	notetype $F, $25
	note __, 16
	notetype $C, $25
	note A#, 4
	note __, 4
	note A#, 4
	note __, 16
	note G#, 4
Music_Lava_Ch3_loop:
	note A#, 4
	note A#, 1
	note __, 1
	note A#, 1
	note __, 1
	note A#, 4
	note G#, 1
	note __, 1
	note G#, 1
	note __, 3
	note A#, 1
	note __, 3
	note A#, 6
	note A#, 1
	note __, 1
	note A#, 1
	note __, 1
	note A#, 4
	note A#, 1
	note __, 1
	note A#, 1
	note __, 1
	note A#, 4
	note G#, 1
	note __, 1
	note G#, 1
	note __, 3
	note A#, 1
	note __, 3
	note A#, 6
	note A#, 1
	note __, 1
	note A#, 1
	note __, 1
	note A#, 4
	note A#, 1
	note __, 1
	note A#, 1
	note __, 1
	note A#, 4
	note G#, 1
	note __, 1
	note G#, 1
	note __, 3
	note A#, 1
	note __, 3
	note A#, 6
	note A#, 1
	note __, 1
	note A#, 1
	note __, 1
	note A#, 4
	note A#, 1
	note __, 1
	note A#, 1
	note __, 1
	note A#, 4
	note G#, 1
	note __, 1
	note G#, 1
	note __, 3
	note A#, 1
	note __, 3
	note A#, 6
	note A#, 1
	note __, 1
	note A#, 1
	note __, 1
	note A#, 4
	note A#, 1
	note __, 1
	note A#, 1
	note __, 1
	note A#, 4
	note G#, 1
	note __, 1
	note G#, 1
	note __, 3
	note A#, 1
	note __, 3
	note A#, 6
	note A#, 1
	note __, 1
	note A#, 1
	note __, 1
	note A#, 4
	note A#, 1
	note __, 1
	note A#, 1
	note __, 1
	note A#, 4
	note G#, 1
	note __, 1
	note G#, 1
	note __, 3
	note A#, 1
	note __, 3
	note A#, 6
	note A#, 1
	note __, 1
	note A#, 1
	note __, 1
	note A#, 4
	note A#, 1
	note __, 1
	note A#, 1
	note __, 1
	note A#, 4
	note G#, 1
	note __, 1
	note G#, 1
	note __, 3
	note A#, 1
	note __, 3
	note A#, 6
	note A#, 1
	note __, 1
	note A#, 1
	note __, 1
	note A#, 4
	note A#, 1
	note __, 1
	note A#, 1
	note __, 1
	note A#, 4
	note G#, 1
	note __, 1
	note G#, 1
	note __, 3
	note A#, 1
	note __, 3
	note A#, 6
	note A#, 1
	note __, 1
	note A#, 1
	note __, 1
	note A#, 4
	note A#, 1
	note __, 1
	note A#, 1
	note __, 1
	note A#, 4
	note G#, 1
	note __, 1
	note G#, 1
	note __, 3
	note A#, 1
	note __, 3
	note A#, 6
	note A#, 1
	note __, 1
	note A#, 1
	note __, 1
	note A#, 4
	note A#, 1
	note __, 1
	note A#, 1
	note __, 1
	note A#, 4
	note G#, 1
	note __, 1
	note G#, 1
	note __, 3
	note A#, 1
	note __, 3
	note A#, 6
	note A#, 1
	note __, 1
	note A#, 1
	note __, 1
	note A#, 4
	note A#, 1
	note __, 1
	note A#, 1
	note __, 1
	note A#, 4
	note G#, 1
	note __, 1
	note G#, 1
	note __, 3
	note A#, 1
	note __, 3
	note A#, 6
	note A#, 1
	note __, 1
	note A#, 1
	note __, 1
	note A#, 4
	note A#, 1
	note __, 1
	note A#, 1
	note __, 1
	note A#, 4
	note G#, 1
	note __, 1
	note G#, 1
	note __, 3
	note A#, 1
	note __, 3
	note A#, 6
	note A#, 1
	note __, 1
	note A#, 1
	note __, 1
	note A#, 4
	note A#, 1
	note __, 1
	note A#, 1
	note __, 1
	note A#, 4
	note G#, 1
	note __, 1
	note G#, 1
	note __, 3
	note A#, 1
	note __, 3
	note A#, 6
	note A#, 1
	note __, 1
	note A#, 1
	note __, 1
	note A#, 4
	note A#, 1
	note __, 1
	note A#, 1
	note __, 1
	note A#, 4
	note G#, 1
	note __, 1
	note G#, 1
	note __, 3
	note A#, 1
	note __, 3
	note A#, 6
	note A#, 1
	note __, 1
	note A#, 1
	note __, 1
	note A#, 4
	note A#, 1
	note __, 1
	note A#, 1
	note __, 1
	note A#, 4
	note G#, 1
	note __, 1
	note G#, 1
	note __, 3
	note A#, 1
	note __, 3
	note A#, 6
	note A#, 1
	note __, 1
	note A#, 1
	note __, 1
	note A#, 4
	note A#, 1
	note __, 1
	note A#, 1
	note __, 1
	note A#, 4
	note G#, 1
	note __, 1
	note G#, 1
	note __, 3
	note A#, 1
	note __, 3
	note A#, 6
	note A#, 1
	note __, 1
	note A#, 1
	note __, 1
	note A#, 4
	note A#, 1
	note __, 1
	note A#, 1
	note __, 1
	note A#, 4
	note G#, 1
	note __, 1
	note G#, 1
	note __, 3
	note A#, 1
	note __, 3
	note A#, 6
	note A#, 1
	note __, 1
	note A#, 1
	note __, 1
	note A#, 4
	note A#, 1
	note __, 1
	note A#, 1
	note __, 1
	note A#, 4
	note G#, 1
	note __, 1
	note G#, 1
	note __, 3
	note A#, 1
	note __, 3
	note A#, 6
	note A#, 1
	note __, 1
	note A#, 1
	note __, 1
	note A#, 4
	note A#, 1
	note __, 1
	note A#, 1
	note __, 1
	note A#, 4
	note G#, 1
	note __, 1
	note G#, 1
	note __, 3
	note A#, 1
	note __, 3
	note A#, 6
	note A#, 1
	note __, 1
	note A#, 1
	note __, 1
	note A#, 4
	note A#, 1
	note __, 1
	note A#, 1
	note __, 1
	note A#, 4
	note G#, 1
	note __, 1
	note G#, 1
	note __, 3
	note A#, 1
	note __, 3
	note A#, 6
	note A#, 1
	note __, 1
	note A#, 1
	note __, 1
	octave 2
	note F_, 1
	note __, 1
	note F_, 1
	note __, 1
	octave 1
	note F_, 1
	note __, 1
	note F_, 1
	note __, 1
	octave 2
	note F_, 1
	note __, 1
	note F_, 1
	note __, 1
	octave 1
	note F_, 1
	note __, 1
	note F_, 1
	note __, 1
	octave 2
	note F_, 1
	note __, 1
	note F_, 1
	note __, 1
	octave 1
	note F_, 1
	note __, 1
	note F_, 1
	note __, 1
	octave 2
	note F_, 1
	note __, 1
	note F_, 1
	note __, 1
	octave 1
	note F_, 1
	note __, 1
	note F_, 1
	note __, 1
	octave 2
	note D#, 1
	note __, 1
	note D#, 1
	note __, 1
	octave 1
	note D#, 1
	note __, 1
	note D#, 1
	note __, 1
	octave 2
	note D#, 1
	note __, 1
	note D#, 1
	note __, 1
	octave 1
	note D#, 1
	note __, 1
	note D#, 1
	note __, 1
	octave 2
	note D#, 1
	note __, 1
	note D#, 1
	note __, 1
	octave 1
	note D#, 1
	note __, 1
	note D#, 1
	note __, 1
	octave 2
	note D#, 1
	note __, 1
	note D#, 1
	note __, 1
	octave 1
	note D#, 1
	note __, 1
	note D#, 1
	note __, 1
	note A#, 4
	note A#, 1
	note __, 1
	note A#, 1
	note __, 1
	note A#, 4
	note G#, 1
	note __, 1
	note G#, 1
	note __, 3
	note A#, 1
	note __, 3
	note A#, 6
	note A#, 1
	note __, 1
	note A#, 1
	note __, 1
	note A#, 4
	note A#, 1
	note __, 1
	note A#, 1
	note __, 1
	note A#, 4
	note G#, 1
	note __, 1
	note G#, 1
	note __, 3
	note A#, 1
	note __, 3
	note A#, 6
	note A#, 1
	note __, 1
	note A#, 1
	note __, 1
	octave 2
	note F_, 1
	note __, 1
	note F_, 1
	note __, 1
	octave 1
	note F_, 1
	note __, 1
	note F_, 1
	note __, 1
	octave 2
	note F_, 1
	note __, 1
	note F_, 1
	note __, 1
	octave 1
	note F_, 1
	note __, 1
	note F_, 1
	note __, 1
	octave 2
	note F_, 1
	note __, 1
	note F_, 1
	note __, 1
	octave 1
	note F_, 1
	note __, 1
	note F_, 1
	note __, 1
	octave 2
	note F_, 1
	note __, 1
	note F_, 1
	note __, 1
	octave 1
	note F_, 1
	note __, 1
	note F_, 1
	note __, 1
	octave 2
	note D#, 1
	note __, 1
	note D#, 1
	note __, 1
	octave 1
	note D#, 1
	note __, 1
	note D#, 1
	note __, 1
	octave 2
	note D#, 1
	note __, 1
	note D#, 1
	note __, 1
	octave 1
	note D#, 1
	note __, 1
	note D#, 1
	note __, 1
	octave 2
	note D#, 1
	note __, 1
	note D#, 1
	note __, 1
	octave 1
	note D#, 1
	note __, 1
	note D#, 1
	note __, 1
	octave 2
	note D#, 1
	note __, 1
	note D#, 1
	note __, 1
	octave 1
	note D#, 1
	note __, 1
	note D#, 1
	note __, 1
	note A#, 4
	note A#, 1
	note __, 1
	note A#, 1
	note __, 1
	note A#, 4
	note G#, 1
	note __, 1
	note G#, 1
	note __, 3
	note A#, 1
	note __, 3
	note A#, 6
	note A#, 1
	note __, 1
	note A#, 1
	note __, 1
	note A#, 4
	note A#, 1
	note __, 1
	note A#, 1
	note __, 1
	note A#, 4
	note G#, 1
	note __, 1
	note G#, 1
	note __, 3
	note A#, 1
	note __, 3
	note A#, 6
	note A#, 1
	note __, 1
	note A#, 1
	note __, 1
	octave 2
	note F_, 1
	note __, 1
	note F_, 1
	note __, 1
	octave 1
	note F_, 1
	note __, 1
	note F_, 1
	note __, 1
	octave 2
	note F_, 1
	note __, 1
	note F_, 1
	note __, 1
	octave 1
	note F_, 1
	note __, 1
	note F_, 1
	note __, 1
	octave 2
	note F_, 1
	note __, 1
	note F_, 1
	note __, 1
	octave 1
	note F_, 1
	note __, 1
	note F_, 1
	note __, 1
	octave 2
	note F_, 1
	note __, 1
	note F_, 1
	note __, 1
	octave 1
	note F_, 1
	note __, 1
	note F_, 1
	note __, 1
	octave 2
	note D#, 1
	note __, 1
	note D#, 1
	note __, 1
	octave 1
	note D#, 1
	note __, 1
	note D#, 1
	note __, 1
	octave 2
	note D#, 1
	note __, 1
	note D#, 1
	note __, 1
	octave 1
	note D#, 1
	note __, 1
	note D#, 1
	note __, 1
	octave 2
	note D#, 1
	note __, 1
	note D#, 1
	note __, 1
	octave 1
	note D#, 1
	note __, 1
	note D#, 1
	note __, 1
	octave 2
	note D#, 1
	note __, 1
	note D#, 1
	note __, 1
	octave 1
	note D#, 1
	note __, 1
	note D#, 1
	note __, 1
	note A#, 4
	note A#, 1
	note __, 1
	note A#, 1
	note __, 1
	note A#, 4
	note G#, 1
	note __, 1
	note G#, 1
	note __, 3
	note A#, 1
	note __, 3
	note A#, 6
	note A#, 1
	note __, 1
	note A#, 1
	note __, 1
	note A#, 4
	note A#, 1
	note __, 1
	note A#, 1
	note __, 1
	note A#, 4
	note G#, 1
	note __, 1
	note G#, 1
	note __, 3
	note A#, 1
	note __, 3
	note A#, 6
	note A#, 1
	note __, 1
	note A#, 1
	note __, 1
	octave 2
	note F_, 1
	note __, 1
	note F_, 1
	note __, 1
	octave 1
	note F_, 1
	note __, 1
	note F_, 1
	note __, 1
	octave 2
	note F_, 1
	note __, 1
	note F_, 1
	note __, 1
	octave 1
	note F_, 1
	note __, 1
	note F_, 1
	note __, 1
	octave 2
	note F_, 1
	note __, 1
	note F_, 1
	note __, 1
	octave 1
	note F_, 1
	note __, 1
	note F_, 1
	note __, 1
	octave 2
	note F_, 1
	note __, 1
	note F_, 1
	note __, 1
	octave 1
	note F_, 1
	note __, 1
	note F_, 1
	note __, 1
	octave 2
	note D#, 1
	note __, 1
	note D#, 1
	note __, 1
	octave 1
	note D#, 1
	note __, 1
	note D#, 1
	note __, 1
	octave 2
	note D#, 1
	note __, 1
	note D#, 1
	note __, 1
	octave 1
	note D#, 1
	note __, 1
	note D#, 1
	note __, 1
	octave 2
	note D#, 1
	note __, 1
	note D#, 1
	note __, 1
	octave 1
	note D#, 1
	note __, 1
	note D#, 1
	note __, 1
	octave 2
	note D#, 1
	note __, 1
	note D#, 1
	note __, 1
	octave 1
	note D#, 1
	note __, 1
	note D#, 1
	note __, 1
	note A#, 4
	note A#, 1
	note __, 1
	note A#, 1
	note __, 1
	note A#, 4
	note G#, 1
	note __, 1
	note G#, 1
	note __, 3
	note A#, 1
	note __, 3
	note A#, 6
	note A#, 1
	note __, 1
	note A#, 1
	note __, 1
	note A#, 4
	note A#, 1
	note __, 1
	note A#, 1
	note __, 1
	note A#, 4
	note G#, 1
	note __, 1
	note G#, 1
	note __, 3
	note A#, 1
	note __, 3
	note A#, 6
	note A#, 1
	note __, 1
	note A#, 1
	note __, 1
	note A#, 4
	note A#, 1
	note __, 1
	note A#, 1
	note __, 1
	note A#, 4
	note G#, 1
	note __, 1
	note G#, 1
	note __, 3
	note A#, 1
	note __, 3
	note A#, 6
	note A#, 1
	note __, 1
	note A#, 1
	note __, 1
	note A#, 4
	note A#, 1
	note __, 1
	note A#, 1
	note __, 1
	note A#, 4
	note G#, 1
	note __, 1
	note G#, 1
	note __, 3
	note A#, 1
	note __, 3
	note A#, 6
	note A#, 1
	note __, 1
	note A#, 1
	octave 8
	notetype $4, $25
	note A#, 1
	notetype $1, $25
	note A#, 1
	note A#, 1
	note A#, 4
	note G#, 1
	note G#, 1
	note A#, 1
	note A#, 6
	note A#, 1
	note A#, 1
	octave 2
	note F_, 1
	note F_, 1
	octave 1
	note F_, 1
	note F_, 1
	octave 2
	note F_, 1
	note F_, 1
	octave 1
	note F_, 1
	note F_, 1
	octave 2
	note F_, 1
	note F_, 1
	octave 1
	note F_, 1
	note F_, 1
	octave 2
	note F_, 1
	note F_, 1
	octave 1
	note F_, 1
	note F_, 1
	octave 2
	note D#, 1
	note D#, 1
	octave 1
	note D#, 1
	note D#, 1
	octave 2
	note D#, 1
	note D#, 1
	octave 1
	note D#, 1
	note D#, 1
	octave 2
	note D#, 1
	note D#, 1
	octave 1
	note D#, 1
	note D#, 1
	octave 2
	note D#, 1
	note D#, 1
	octave 1
	note D#, 1
	note D#, 1
	loopchannel 0, Music_Lava_Ch3_loop

Music_Lava_Ch4:
	notetype $1
	note __, 16
	note __, 16
	note __, 16
	note __, 16
	note __, 16
	note __, 16
	note __, 16
	note __, 2
	togglenoise 3
	note D_, 1
	note __, 1
	note D#, 1
	note __, 1
	note D#, 1
	note __, 1
	note D_, 1
	note __, 1
	note D#, 1
	note __, 1
	note D_, 1
	note __, 1
	note D_, 1
	note __, 1
Music_Lava_Ch4_loop:
	note D#, 1
	note __, 3
	note D#, 1
	note __, 1
	note D#, 1
	note __, 1
	note D_, 1
	note __, 3
	note D#, 1
	note __, 1
	note D_, 1
	note __, 3
	note D_, 1
	note __, 1
	note D#, 1
	note __, 1
	note D#, 1
	note __, 1
	note D_, 1
	note __, 3
	note D#, 1
	note __, 3
	note D#, 1
	note __, 3
	note D#, 1
	note __, 1
	note D#, 1
	note __, 1
	note D_, 1
	note __, 3
	note D#, 1
	note __, 1
	note D_, 1
	note __, 3
	note D_, 1
	note __, 1
	note D#, 1
	note __, 1
	note D#, 1
	note __, 1
	note D_, 1
	note __, 1
	note D#, 1
	note __, 1
	note D_, 1
	note __, 1
	note D_, 1
	note __, 1
	note D#, 1
	note __, 3
	note D#, 1
	note __, 1
	note D#, 1
	note __, 1
	note D_, 1
	note __, 3
	note D#, 1
	note __, 1
	note D_, 1
	note __, 3
	note D_, 1
	note __, 1
	note D#, 1
	note __, 1
	note D#, 1
	note __, 1
	note D_, 1
	note __, 3
	note D#, 1
	note __, 3
	note D#, 1
	note __, 3
	note D#, 1
	note __, 1
	note D#, 1
	note __, 1
	note D_, 1
	note __, 3
	note D#, 1
	note __, 1
	note D_, 1
	note __, 3
	note D_, 1
	note __, 1
	note D#, 1
	note __, 1
	note D#, 1
	note __, 1
	note D_, 1
	note __, 1
	note D#, 1
	note __, 1
	note D_, 1
	note __, 1
	note D_, 1
	note __, 1
	note D#, 1
	note __, 3
	note D#, 1
	note __, 1
	note D#, 1
	note __, 1
	note D_, 1
	note __, 3
	note D#, 1
	note __, 1
	note D_, 1
	note __, 3
	note D_, 1
	note __, 1
	note D#, 1
	note __, 1
	note D#, 1
	note __, 1
	note D_, 1
	note __, 3
	note D#, 1
	note __, 3
	note D#, 1
	note __, 3
	note D#, 1
	note __, 1
	note D#, 1
	note __, 1
	note D_, 1
	note __, 3
	note D#, 1
	note __, 1
	note D_, 1
	note __, 3
	note D_, 1
	note __, 1
	note D#, 1
	note __, 1
	note D#, 1
	note __, 1
	note D_, 1
	note __, 1
	note D#, 1
	note __, 1
	note D_, 1
	note __, 1
	note D_, 1
	note __, 1
	note D#, 1
	note __, 3
	note D#, 1
	note __, 1
	note D#, 1
	note __, 1
	note D_, 1
	note __, 3
	note D#, 1
	note __, 1
	note D_, 1
	note __, 3
	note D_, 1
	note __, 1
	note D#, 1
	note __, 1
	note D#, 1
	note __, 1
	note D_, 1
	note __, 3
	note D#, 1
	note __, 3
	note D#, 1
	note __, 3
	note D#, 1
	note __, 1
	note D#, 1
	note __, 1
	note D_, 1
	note __, 3
	note D#, 1
	note __, 1
	note D_, 1
	note __, 3
	note D_, 1
	note __, 1
	note D#, 1
	note __, 1
	note D#, 1
	note __, 1
	note D_, 1
	note __, 1
	note D#, 1
	note __, 1
	note D_, 1
	note __, 1
	note D_, 1
	note __, 1
	note D#, 1
	note __, 3
	note D#, 1
	note __, 1
	note D#, 1
	note __, 1
	note D_, 1
	note __, 3
	note D#, 1
	note __, 1
	note D_, 1
	note __, 3
	note D_, 1
	note __, 1
	note D#, 1
	note __, 1
	note D#, 1
	note __, 1
	note D_, 1
	note __, 3
	note D#, 1
	note __, 3
	note D#, 1
	note __, 3
	note D#, 1
	note __, 1
	note D#, 1
	note __, 1
	note D_, 1
	note __, 3
	note D#, 1
	note __, 1
	note D_, 1
	note __, 3
	note D_, 1
	note __, 1
	note D#, 1
	note __, 1
	note D#, 1
	note __, 1
	note D_, 1
	note __, 1
	note D#, 1
	note __, 1
	note D_, 1
	note __, 1
	note D_, 1
	note __, 1
	note D#, 1
	note __, 3
	note D#, 1
	note __, 1
	note D#, 1
	note __, 1
	note D_, 1
	note __, 3
	note D#, 1
	note __, 1
	note D_, 1
	note __, 3
	note D_, 1
	note __, 1
	note D#, 1
	note __, 1
	note D#, 1
	note __, 1
	note D_, 1
	note __, 3
	note D#, 1
	note __, 3
	note D#, 1
	note __, 3
	note D#, 1
	note __, 1
	note D#, 1
	note __, 1
	note D_, 1
	note __, 3
	note D#, 1
	note __, 1
	note D_, 1
	note __, 3
	note D_, 1
	note __, 1
	note D#, 1
	note __, 1
	note D#, 1
	note __, 1
	note D_, 1
	note __, 1
	note D#, 1
	note __, 1
	note D_, 1
	note __, 1
	note D_, 1
	note __, 1
	note D#, 1
	note __, 3
	note D#, 1
	note __, 1
	note D#, 1
	note __, 1
	note D_, 1
	note __, 3
	note D#, 1
	note __, 1
	note D_, 1
	note __, 3
	note D_, 1
	note __, 1
	note D#, 1
	note __, 1
	note D#, 1
	note __, 1
	note D_, 1
	note __, 3
	note D#, 1
	note __, 3
	note D#, 1
	note __, 3
	note D#, 1
	note __, 1
	note D#, 1
	note __, 1
	note D_, 1
	note __, 3
	note D#, 1
	note __, 1
	note D_, 1
	note __, 3
	note D_, 1
	note __, 1
	note D#, 1
	note __, 1
	note D#, 1
	note __, 1
	note D_, 1
	note __, 1
	note D#, 1
	note __, 1
	note D_, 1
	note __, 1
	note D_, 1
	note __, 1
	note D#, 1
	note __, 3
	note D#, 1
	note __, 1
	note D#, 1
	note __, 1
	note D_, 1
	note __, 3
	note D#, 1
	note __, 1
	note D_, 1
	note __, 3
	note D_, 1
	note __, 1
	note D#, 1
	note __, 1
	note D#, 1
	note __, 1
	note D_, 1
	note __, 3
	note D#, 1
	note __, 3
	note D#, 1
	note __, 3
	note D#, 1
	note __, 1
	note D#, 1
	note __, 1
	note D_, 1
	note __, 3
	note D#, 1
	note __, 1
	note D_, 1
	note __, 3
	note D_, 1
	note __, 1
	note D#, 1
	note __, 1
	note D#, 1
	note __, 1
	note D_, 1
	note __, 1
	note D#, 1
	note __, 1
	note D_, 1
	note __, 1
	note D_, 1
	note __, 1
	note D#, 1
	note __, 3
	note D#, 1
	note __, 1
	note D#, 1
	note __, 1
	note D_, 1
	note __, 3
	note D#, 1
	note __, 1
	note D_, 1
	note __, 3
	note D_, 1
	note __, 1
	note D#, 1
	note __, 1
	note D#, 1
	note __, 1
	note D_, 1
	note __, 3
	note D#, 1
	note __, 3
	note D#, 1
	note __, 3
	note D#, 1
	note __, 1
	note D#, 1
	note __, 1
	note D_, 1
	note __, 3
	note D#, 1
	note __, 1
	note D_, 1
	note __, 3
	note D_, 1
	note __, 1
	note D#, 1
	note __, 1
	note D#, 1
	note __, 1
	note D_, 1
	note __, 1
	note D#, 1
	note __, 1
	note D_, 1
	note __, 1
	note D_, 1
	note __, 1
	note D#, 1
	note __, 3
	note D#, 1
	note __, 1
	note D#, 1
	note __, 1
	note D_, 1
	note __, 3
	note D#, 1
	note __, 1
	note D_, 1
	note __, 3
	note D_, 1
	note __, 1
	note D#, 1
	note __, 1
	note D#, 1
	note __, 1
	note D_, 1
	note __, 3
	note D#, 1
	note __, 3
	note D#, 1
	note __, 3
	note D#, 1
	note __, 1
	note D#, 1
	note __, 1
	note D_, 1
	note __, 3
	note D#, 1
	note __, 1
	note D_, 1
	note __, 3
	note D_, 1
	note __, 1
	note D#, 1
	note __, 1
	note D#, 1
	note __, 1
	note D_, 1
	note __, 1
	note D#, 1
	note __, 1
	note D_, 1
	note __, 1
	note D_, 1
	note __, 1
	note D_, 1
	note __, 1
	note D_, 1
	note __, 1
	note D#, 1
	note __, 1
	note D#, 1
	note __, 1
	note D_, 1
	note __, 1
	note D_, 1
	note __, 1
	note D#, 1
	note __, 1
	note D#, 1
	note __, 1
	note D_, 1
	note __, 1
	note D_, 1
	note __, 1
	note D#, 1
	note __, 1
	note D#, 1
	note __, 1
	note D_, 1
	note __, 1
	note D_, 1
	note __, 1
	note D#, 1
	note __, 1
	note D#, 1
	note __, 1
	note D_, 1
	note __, 1
	note D_, 1
	note __, 1
	note D#, 1
	note __, 1
	note D#, 1
	note __, 1
	note D_, 1
	note __, 1
	note D_, 1
	note __, 1
	note D#, 1
	note __, 1
	note D#, 1
	note __, 1
	note D_, 1
	note __, 1
	note D_, 1
	note __, 1
	note D#, 1
	note __, 1
	note D#, 1
	note __, 1
	note D_, 1
	note __, 1
	note D_, 1
	note __, 1
	note D#, 1
	note __, 1
	note D#, 1
	note __, 1
	note D#, 1
	note __, 3
	note D#, 1
	note __, 1
	note D#, 1
	note __, 1
	note D_, 1
	note __, 3
	note D#, 1
	note __, 1
	note D_, 1
	note __, 3
	note D_, 1
	note __, 1
	note D#, 1
	note __, 1
	note D#, 1
	note __, 1
	note D_, 1
	note __, 3
	note D#, 1
	note __, 3
	note D#, 1
	note __, 3
	note D#, 1
	note __, 1
	note D#, 1
	note __, 1
	note D_, 1
	note __, 3
	note D#, 1
	note __, 1
	note D_, 1
	note __, 3
	note D_, 1
	note __, 1
	note D#, 1
	note __, 1
	note D#, 1
	note __, 1
	note D_, 1
	note __, 1
	note D#, 1
	note __, 1
	note D_, 1
	note __, 1
	note D_, 1
	note __, 1
	note D_, 1
	note __, 1
	note D_, 1
	note __, 1
	note D#, 1
	note __, 1
	note D#, 1
	note __, 1
	note D_, 1
	note __, 1
	note D_, 1
	note __, 1
	note D#, 1
	note __, 1
	note D#, 1
	note __, 1
	note D_, 1
	note __, 1
	note D_, 1
	note __, 1
	note D#, 1
	note __, 1
	note D#, 1
	note __, 1
	note D_, 1
	note __, 1
	note D_, 1
	note __, 1
	note D#, 1
	note __, 1
	note D#, 1
	note __, 1
	note D_, 1
	note __, 1
	note D_, 1
	note __, 1
	note D#, 1
	note __, 1
	note D#, 1
	note __, 1
	note D_, 1
	note __, 1
	note D_, 1
	note __, 1
	note D#, 1
	note __, 1
	note D#, 1
	note __, 1
	note D_, 1
	note __, 1
	note D_, 1
	note __, 1
	note D#, 1
	note __, 1
	note D#, 1
	note __, 1
	note D_, 1
	note __, 1
	note D_, 1
	note __, 1
	note D#, 1
	note __, 1
	note D#, 1
	note __, 1
	note D#, 1
	note __, 3
	note D#, 1
	note __, 1
	note D#, 1
	note __, 1
	note D_, 1
	note __, 3
	note D#, 1
	note __, 1
	note D_, 1
	note __, 3
	note D_, 1
	note __, 1
	note D#, 1
	note __, 1
	note D#, 1
	note __, 1
	note D_, 1
	note __, 3
	note D#, 1
	note __, 3
	note D#, 1
	note __, 3
	note D#, 1
	note __, 1
	note D#, 1
	note __, 1
	note D_, 1
	note __, 3
	note D#, 1
	note __, 1
	note D_, 1
	note __, 3
	note D_, 1
	note __, 1
	note D#, 1
	note __, 1
	note D#, 1
	note __, 1
	note D_, 1
	note __, 1
	note D#, 1
	note __, 1
	note D_, 1
	note __, 1
	note D_, 1
	note __, 1
	note D_, 1
	note __, 1
	note D_, 1
	note __, 1
	note D#, 1
	note __, 1
	note D#, 1
	note __, 1
	note D_, 1
	note __, 1
	note D_, 1
	note __, 1
	note D#, 1
	note __, 1
	note D#, 1
	note __, 1
	note D_, 1
	note __, 1
	note D_, 1
	note __, 1
	note D#, 1
	note __, 1
	note D#, 1
	note __, 1
	note D_, 1
	note __, 1
	note D_, 1
	note __, 1
	note D#, 1
	note __, 1
	note D#, 1
	note __, 1
	note D_, 1
	note __, 1
	note D_, 1
	note __, 1
	note D#, 1
	note __, 1
	note D#, 1
	note __, 1
	note D_, 1
	note __, 1
	note D_, 1
	note __, 1
	note D#, 1
	note __, 1
	note D#, 1
	note __, 1
	note D_, 1
	note __, 1
	note D_, 1
	note __, 1
	note D#, 1
	note __, 1
	note D#, 1
	note __, 1
	note D_, 1
	note __, 1
	note D_, 1
	note __, 1
	note D#, 1
	note __, 1
	note D#, 1
	note __, 1
	note D#, 1
	note __, 3
	note D#, 1
	note __, 1
	note D#, 1
	note __, 1
	note D_, 1
	note __, 3
	note D#, 1
	note __, 1
	note D_, 1
	note __, 3
	note D_, 1
	note __, 1
	note D#, 1
	note __, 1
	note D#, 1
	note __, 1
	note D_, 1
	note __, 3
	note D#, 1
	note __, 3
	note D#, 1
	note __, 3
	note D#, 1
	note __, 1
	note D#, 1
	note __, 1
	note D_, 1
	note __, 3
	note D#, 1
	note __, 1
	note D_, 1
	note __, 3
	note D_, 1
	note __, 1
	note D#, 1
	note __, 1
	note D#, 1
	note __, 1
	note D_, 1
	note __, 1
	note D#, 1
	note __, 1
	note D_, 1
	note __, 1
	note D_, 1
	note __, 1
	note D_, 1
	note __, 1
	note D_, 1
	note __, 1
	note D#, 1
	note __, 1
	note D#, 1
	note __, 1
	note D_, 1
	note __, 1
	note D_, 1
	note __, 1
	note D#, 1
	note __, 1
	note D#, 1
	note __, 1
	note D_, 1
	note __, 1
	note D_, 1
	note __, 1
	note D#, 1
	note __, 1
	note D#, 1
	note __, 1
	note D_, 1
	note __, 1
	note D_, 1
	note __, 1
	note D#, 1
	note __, 1
	note D#, 1
	note __, 1
	note D_, 1
	note __, 1
	note D_, 1
	note __, 1
	note D#, 1
	note __, 1
	note D#, 1
	note __, 1
	note D_, 1
	note __, 1
	note D_, 1
	note __, 1
	note D#, 1
	note __, 1
	note D#, 1
	note __, 1
	note D_, 1
	note __, 1
	note D_, 1
	note __, 1
	note D#, 1
	note __, 1
	note D#, 1
	note __, 1
	note D_, 1
	note __, 1
	note D_, 1
	note __, 1
	note D#, 1
	note __, 1
	note D#, 1
	note __, 1
	note D#, 1
	note __, 3
	note D#, 1
	note __, 1
	note D#, 1
	note __, 1
	note D_, 1
	note __, 3
	note D#, 1
	note __, 1
	note D_, 1
	note __, 3
	note D_, 1
	note __, 1
	note D#, 1
	note __, 1
	note D#, 1
	note __, 1
	note D_, 1
	note __, 3
	note D#, 1
	note __, 3
	note D#, 1
	note __, 3
	note D#, 1
	note __, 1
	note D#, 1
	note __, 1
	note D_, 1
	note __, 3
	note D#, 1
	note __, 1
	note D_, 1
	note __, 3
	note D_, 1
	note __, 1
	note D#, 1
	note __, 1
	note D#, 1
	note __, 1
	note D_, 1
	note __, 1
	note D#, 1
	note __, 1
	note D_, 1
	note __, 1
	note D_, 1
	note __, 16
	note __, 16
	note __, 16
	note __, 3
	note D_, 1
	note __, 1
	note D#, 1
	note __, 1
	note D#, 1
	note __, 1
	note D_, 1
	note __, 1
	note D#, 1
	note __, 1
	note D_, 1
	note __, 1
	note D_, 1
	note __, 1
	loopchannel 0, Music_Lava_Ch4_loop

